<svg xmlns="http://www.w3.org/2000/svg" xmlns:xlink="http://www.w3.org/1999/xlink" viewBox="0 0 1281 1024"><defs><style>.cls-1{fill:none;}.cls-1,.cls-2,.cls-3,.cls-4,.cls-5,.cls-6,.cls-7{stroke:#000;stroke-miterlimit:10;}.cls-2{fill:#eda6de;}.cls-4{fill:#fff;}.cls-5{fill:#e5952c;}.cls-6{fill:#d0a800;}.cls-7{fill:#0f0d0d;}</style></defs><g id="Layer_1" data-name="Layer 1"><image width="520" height="349" transform="translate(247 244) scale(1.54 1.54)" xlink:href="penguin.jpg"/><path class="cls-1" d="M506,720.72" transform="translate(0)"/></g><g id="bg"><rect class="cls-2" x="0.5" y="0.5" width="1280" height="1023"/></g><g id="peng"><path class="cls-3" d="M463.5,606.5l51,74,23,13-37,15,28,20h79l84-6,40,6h49l12-19-32-14s46-37,54-60l8-23,19-6,13-17,6-36v-53l-20-49s-56-111-25-48-10-37-37-69l-27-32-36-29s-24-18-43-18h-45l-47,14-53,47-49,76-32,72-13,57-5,35,15,43Z" transform="translate(0)"/><path class="cls-1" d="M572.5,356.5" transform="translate(0)"/><path class="cls-4" d="M646.5,379.5s-20-23-47-23-28,9-40,23-6,42-6,42l19,32-38,44s-22,56-16,79,15,61,15,61l33,39,52,29h42s14,0,42-13,20-18,32-26,25-32,25-32l16-50v-40l-9-32-17-33-28-29,17-26-1-38s-14-30-28-30h-36Z" transform="translate(0)"/><polygon class="cls-5" points="537.5 693.5 554.5 705.5 572.5 714.5 598.5 721.5 586.87 728.5 564.27 728.5 539.68 728.5 517.5 726.5 506.5 720.5 500.5 712.5 500.5 707.5 517.5 698.5 531.93 694.89 537.5 693.5"/><polygon class="cls-6" points="626.5 438.5 661.5 438.5 670.5 440.5 675.5 444.5 675.5 451.5 670.5 458.5 658.5 466.5 638.5 466.5 626.5 461.5 618.5 452.5 618.5 446.5 626.5 438.5"/><polygon class="cls-7" points="602.5 396.5 598.5 402.5 598.5 412.5 604.5 416.5 611.5 418.5 618.5 413.5 621.5 407.5 621.5 401.5 621.5 394.5 600.5 387.5 598.5 392.5 602.5 396.5"/><polygon class="cls-7" points="697.5 395.5 702.5 404.5 700.5 413.5 692.5 418.5 682.5 418.5 675.5 405.5 678.5 400.5 677.5 393.5 701.5 387.5 701.5 393.5 697.5 395.5"/><polyline class="cls-5" points="760.5 695.5 775.5 698.5 787.5 703.5 792.5 710.5 792.5 717.5 787.89 720.72 779.5 724.5 769.34 728.5 760.5 728.5 752.63 728.5 740.11 728.5 731.5 728.5 721.09 728.5 713.66 728.5 704.78 724.49 691.5 722.5 713.6 715.93 760.5 693.5"/><circle class="cls-4" cx="686.5" cy="403.5" r="3"/><circle class="cls-4" cx="615.5" cy="403.5" r="3"/></g></svg>